<svg xmlns="http://www.w3.org/2000/svg" width="1200" height="600" viewBox="0 0 1200 600" fill="none">
  <g opacity=".24" stroke="#28ABE5">
    <path d="M-40 490C220 490 222 148 483 148s253 289 520 289c109 0 184-35 237-88"/>
    <path d="M-10 550c216-8 270-216 464-216 201 0 242 152 421 152 147 0 213-101 365-106"/>
    <path d="M75 610c114-238 257-364 429-364 238 0 257 199 477 199 113 0 195-48 270-130"/>
  </g>
  <g fill="#28ABE5">
    <circle cx="483" cy="148" r="5"/>
    <circle cx="875" cy="486" r="5"/>
    <circle cx="1003" cy="437" r="5"/>
  </g>
</svg>
